<svg data-v-423bf9ae="" xmlns="http://www.w3.org/2000/svg" viewBox="0 0 627 90" class="iconLeft"><!----><!----><!----><g data-v-423bf9ae="" id="c117cac7-e411-4a2c-a147-6df63bd90a10" fill="#ADC4E2" transform="matrix(6.036217558641619,0,0,6.036217558641619,193.33556467581724,-1.9014095916229863)"><path d="M1.35 12.61L1.35 2.95L2.74 2.95L2.74 7.16L7.31 7.16L7.31 2.95L8.71 2.95L8.71 12.61L7.31 12.61L7.31 8.39L2.74 8.39L2.74 12.61L1.35 12.61ZM13.80 12.72Q12.74 12.72 12.01 12.24Q11.27 11.76 10.91 10.97Q10.54 10.18 10.54 9.22L10.54 9.22Q10.54 8.29 10.89 7.47Q11.25 6.66 11.96 6.16Q12.67 5.66 13.69 5.66L13.69 5.66Q14.77 5.66 15.44 6.16Q16.12 6.65 16.41 7.42Q16.71 8.19 16.71 9.04L16.71 9.04Q16.71 9.41 16.67 9.63L16.67 9.63L11.94 9.63Q11.99 10.48 12.46 11.01Q12.93 11.54 13.80 11.54L13.80 11.54Q14.36 11.54 14.79 11.37Q15.22 11.20 15.59 10.81L15.59 10.81L16.50 11.58Q15.94 12.17 15.29 12.44Q14.64 12.72 13.80 12.72L13.80 12.72ZM11.94 8.62L15.42 8.62Q15.37 7.79 14.94 7.27Q14.51 6.76 13.68 6.76L13.68 6.76Q12.89 6.76 12.45 7.28Q12.02 7.80 11.94 8.62L11.94 8.62ZM19.52 12.74Q18.85 12.74 18.56 12.37Q18.27 12.00 18.27 11.24L18.27 11.24L18.27 2.95L19.59 2.95L19.59 11.15Q19.59 11.27 19.70 11.42Q19.80 11.57 20.03 11.57L20.03 11.57Q20.34 11.57 20.60 11.51L20.60 11.51L20.60 12.61Q20.36 12.66 20.07 12.70Q19.78 12.74 19.52 12.74L19.52 12.74ZM23.24 12.74Q22.57 12.74 22.28 12.37Q21.98 12.00 21.98 11.24L21.98 11.24L21.98 2.95L23.31 2.95L23.31 11.15Q23.31 11.27 23.42 11.42Q23.52 11.57 23.75 11.57L23.75 11.57Q24.06 11.57 24.32 11.51L24.32 11.51L24.32 12.61Q24.08 12.66 23.79 12.70Q23.50 12.74 23.24 12.74L23.24 12.74ZM28.49 12.74Q27.50 12.74 26.74 12.26Q25.98 11.78 25.55 10.96Q25.13 10.14 25.13 9.17L25.13 9.17Q25.13 8.20 25.55 7.39Q25.97 6.58 26.74 6.11Q27.50 5.63 28.49 5.63L28.49 5.63Q29.46 5.63 30.23 6.11Q31.00 6.58 31.43 7.40Q31.86 8.21 31.86 9.17L31.86 9.17Q31.86 10.14 31.43 10.96Q31.00 11.78 30.23 12.26Q29.46 12.74 28.49 12.74L28.49 12.74ZM28.49 11.62Q29.16 11.62 29.61 11.28Q30.06 10.94 30.27 10.38Q30.49 9.83 30.49 9.17L30.49 9.17Q30.49 8.52 30.27 7.97Q30.06 7.42 29.61 7.09Q29.16 6.76 28.49 6.76L28.49 6.76Q27.82 6.76 27.37 7.09Q26.93 7.42 26.71 7.97Q26.50 8.52 26.50 9.17L26.50 9.17Q26.50 9.83 26.71 10.39Q26.93 10.94 27.38 11.28Q27.83 11.62 28.49 11.62L28.49 11.62ZM39.83 12.71Q38.99 12.71 38.24 12.41Q37.49 12.10 36.98 11.49Q36.46 10.88 36.32 10.01L36.32 10.01L37.67 9.65Q37.73 10.26 38.03 10.67Q38.34 11.08 38.81 11.28Q39.28 11.48 39.84 11.48L39.84 11.48Q40.67 11.48 41.15 11.08Q41.63 10.69 41.63 9.99L41.63 9.99Q41.63 9.50 41.35 9.15Q41.08 8.81 40.67 8.59Q40.26 8.36 39.55 8.07L39.55 8.07Q38.72 7.72 38.20 7.42Q37.69 7.12 37.32 6.62Q36.96 6.11 36.96 5.35L36.96 5.35Q36.96 4.58 37.34 4.00Q37.71 3.42 38.36 3.11Q39.00 2.80 39.76 2.80L39.76 2.80Q40.66 2.80 41.38 3.20Q42.11 3.60 42.57 4.40L42.57 4.40L41.46 5.10Q41.19 4.58 40.73 4.30Q40.28 4.03 39.73 4.03L39.73 4.03Q39.35 4.03 39.04 4.18Q38.72 4.33 38.53 4.61Q38.34 4.89 38.34 5.26L38.34 5.26Q38.34 5.68 38.59 5.98Q38.84 6.28 39.22 6.48Q39.60 6.68 40.27 6.97L40.27 6.97Q41.15 7.33 41.69 7.65Q42.23 7.96 42.62 8.51Q43.00 9.06 43.00 9.87L43.00 9.87Q43.00 10.73 42.58 11.37Q42.16 12.02 41.44 12.37Q40.71 12.71 39.83 12.71L39.83 12.71ZM44.58 12.61L44.58 2.95L45.90 2.95L45.90 6.75Q46.27 6.22 46.83 5.93Q47.40 5.65 48.01 5.65L48.01 5.65Q48.82 5.65 49.36 6.03Q49.90 6.42 50.16 7.05Q50.42 7.68 50.42 8.44L50.42 8.44L50.42 12.61L49.07 12.61L49.07 8.63Q49.07 6.86 47.72 6.86L47.72 6.86Q47.17 6.86 46.76 7.15Q46.35 7.44 46.13 7.93Q45.90 8.42 45.90 9.03L45.90 9.03L45.90 12.61L44.58 12.61ZM55.14 12.74Q54.15 12.74 53.39 12.26Q52.63 11.78 52.21 10.96Q51.78 10.14 51.78 9.17L51.78 9.17Q51.78 8.20 52.20 7.39Q52.62 6.58 53.39 6.11Q54.15 5.63 55.14 5.63L55.14 5.63Q56.12 5.63 56.89 6.11Q57.65 6.58 58.08 7.40Q58.51 8.21 58.51 9.17L58.51 9.17Q58.51 10.14 58.08 10.96Q57.65 11.78 56.89 12.26Q56.12 12.74 55.14 12.74L55.14 12.74ZM55.15 11.62Q55.82 11.62 56.26 11.28Q56.71 10.94 56.93 10.38Q57.14 9.83 57.14 9.17L57.14 9.17Q57.14 8.52 56.93 7.97Q56.71 7.42 56.26 7.09Q55.82 6.76 55.15 6.76L55.15 6.76Q54.48 6.76 54.03 7.09Q53.58 7.42 53.36 7.97Q53.15 8.52 53.15 9.17L53.15 9.17Q53.15 9.83 53.36 10.39Q53.58 10.94 54.03 11.28Q54.48 11.62 55.15 11.62L55.15 11.62ZM62.75 12.72Q61.69 12.72 60.96 12.24Q60.22 11.76 59.86 10.97Q59.49 10.18 59.49 9.22L59.49 9.22Q59.49 8.29 59.85 7.47Q60.20 6.66 60.91 6.16Q61.62 5.66 62.64 5.66L62.64 5.66Q63.72 5.66 64.39 6.16Q65.07 6.65 65.37 7.42Q65.66 8.19 65.66 9.04L65.66 9.04Q65.66 9.41 65.62 9.63L65.62 9.63L60.89 9.63Q60.94 10.48 61.41 11.01Q61.88 11.54 62.75 11.54L62.75 11.54Q63.31 11.54 63.74 11.37Q64.18 11.20 64.54 10.81L64.54 10.81L65.45 11.58Q64.89 12.17 64.24 12.44Q63.59 12.72 62.75 12.72L62.75 12.72ZM60.89 8.62L64.37 8.62Q64.33 7.79 63.89 7.27Q63.46 6.76 62.63 6.76L62.63 6.76Q61.84 6.76 61.40 7.28Q60.97 7.80 60.89 8.62L60.89 8.62ZM69.22 12.74Q68.56 12.74 68.01 12.50Q67.45 12.26 67.07 11.85Q66.68 11.44 66.52 10.94L66.52 10.94L67.60 10.44Q67.79 10.97 68.17 11.31Q68.55 11.65 69.19 11.65L69.19 11.65Q69.75 11.65 70.09 11.38Q70.42 11.10 70.42 10.67L70.42 10.67Q70.42 10.36 70.23 10.15Q70.03 9.95 69.74 9.83Q69.45 9.71 68.94 9.56L68.94 9.56Q68.28 9.37 67.87 9.18Q67.46 8.99 67.17 8.62Q66.88 8.24 66.88 7.64L66.88 7.64Q66.88 7 67.20 6.55Q67.52 6.09 68.05 5.86Q68.58 5.63 69.22 5.63L69.22 5.63Q70.03 5.63 70.65 6.01Q71.27 6.38 71.63 7.05L71.63 7.05L70.62 7.61Q70.14 6.69 69.17 6.69L69.17 6.69Q68.70 6.69 68.41 6.90Q68.13 7.12 68.13 7.46L68.13 7.46Q68.13 7.72 68.30 7.90Q68.48 8.08 68.75 8.19Q69.02 8.29 69.50 8.44L69.50 8.44Q70.20 8.65 70.64 8.86Q71.07 9.06 71.39 9.48Q71.71 9.89 71.71 10.56L71.71 10.56Q71.71 11.27 71.36 11.76Q71.00 12.26 70.43 12.50Q69.86 12.74 69.22 12.74L69.22 12.74Z"></path></g><!----><g data-v-423bf9ae="" id="0adba1e5-1fef-4330-a891-510edf53e1dc" transform="matrix(1.8197566999755803,0,0,1.8197566999755803,0.04768044872643884,-37.06111752152165)" stroke="none" fill="#ADC4E2"><path d="M71.195 52.306a147.89 147.89 0 01-6.307-1.396L54.771 62.654c2.594-.043 5.166-.121 7.705-.229l8.719-10.119zm-20.088-5.714a63.41 63.41 0 01-5.406-2.442L30.684 61.576c2.289.266 4.604.485 6.945.658l13.478-15.642zm9.707 3.248a105.761 105.761 0 01-5.922-1.844L42.379 62.518c2.432.111 4.887.169 7.362.173L60.814 49.84zm37.875 10.098l.109.255c.021.045.039.089.057.134 1.043 2.632-2.801 3.865-4.652 4.735-9.861 4.64-30.873 5.229-41.375 5.207-2.983-.006-6.354-.128-9.262-.854-.154-.039-.772-.163-.767-.311-.032-1.098-.713-2.304-1.838-2.58-2.278-.559-4.91.878-6.846 1.946-2.193 1.208-6.259 1.52-8.758 1.52-6.913 0-13.896-.82-20.714-1.925-1.045-.169-3.218-.608-3.96-1.441-.791-.886-.354-5.193.274-6.254.543-.913 1.243-1.851 1.652-2.838-.349-1.695-.725-3.438-.906-5.16-.253-2.395 5.284-15.196 6.302-17.825-2.005-1.559.088-2.015.557-2.206 2.146-.872 5.397-1.542 7.277.209 2.99 2.787 4.427 6.269 9.286 6.168 1.66-.035 6.124-.311 7.688-1.048-1.036-.932-2.632-2.668-1.613-4.117.784-1.114 10.769-13.466 13.659-12.707 2.34.615 7.052 12.259 7.907 13.173.328.075 16.486 14.446 24.688 14.967.346.021 4.4.155 5.021.173 3.844.117 8.311.433 12.02 1.441 1.111.301 2.408.609 3.42 1.179 3.071 1.727 2.194 5.641.774 8.159z"></path></g><!----></svg>